<svg width="1200" height="261" viewBox="0 0 1200 261" fill="none" xmlns="http://www.w3.org/2000/svg">
<rect width="1200" height="261" rx="16" fill="white"/>
<rect x="395" y="96" width="69" height="69" rx="11.5" fill="#F97316"/>
<path d="M413.447 113.045H421.37L428.999 127.453H429.325L436.954 113.045H444.876L432.674 134.673V146.5H425.65V134.673L413.447 113.045Z" fill="#F9FAFB"/>
<path d="M486.46 149.14V113.009H494.099V127.917H509.607V113.009H517.228V149.14H509.607V134.215H494.099V149.14H486.46ZM531.112 149.652C529.383 149.652 527.843 149.352 526.49 148.752C525.138 148.14 524.067 147.241 523.279 146.053C522.503 144.853 522.115 143.359 522.115 141.572C522.115 140.066 522.391 138.802 522.944 137.779C523.497 136.755 524.25 135.932 525.202 135.309C526.155 134.685 527.237 134.215 528.448 133.897C529.672 133.58 530.953 133.356 532.294 133.227C533.87 133.062 535.141 132.909 536.105 132.768C537.069 132.615 537.769 132.392 538.204 132.098C538.64 131.804 538.857 131.369 538.857 130.792V130.686C538.857 129.569 538.504 128.705 537.799 128.093C537.105 127.481 536.117 127.176 534.835 127.176C533.482 127.176 532.406 127.476 531.606 128.075C530.806 128.663 530.277 129.404 530.018 130.298L523.068 129.734C523.42 128.087 524.114 126.664 525.149 125.464C526.184 124.253 527.519 123.324 529.154 122.677C530.801 122.018 532.706 121.689 534.87 121.689C536.375 121.689 537.816 121.865 539.192 122.218C540.58 122.571 541.809 123.118 542.88 123.859C543.962 124.6 544.814 125.553 545.438 126.717C546.061 127.87 546.373 129.252 546.373 130.863V149.14H539.245V145.382H539.034C538.598 146.229 538.016 146.976 537.287 147.623C536.558 148.258 535.682 148.758 534.658 149.122C533.635 149.475 532.453 149.652 531.112 149.652ZM533.265 144.465C534.37 144.465 535.346 144.247 536.193 143.812C537.04 143.365 537.705 142.765 538.187 142.013C538.669 141.26 538.91 140.407 538.91 139.455V136.579C538.675 136.732 538.351 136.873 537.94 137.002C537.54 137.12 537.087 137.232 536.581 137.337C536.076 137.432 535.57 137.52 535.064 137.602C534.558 137.673 534.1 137.737 533.688 137.796C532.806 137.926 532.036 138.131 531.377 138.414C530.718 138.696 530.207 139.078 529.842 139.56C529.477 140.031 529.295 140.619 529.295 141.325C529.295 142.348 529.666 143.13 530.407 143.671C531.159 144.2 532.112 144.465 533.265 144.465ZM564.447 149.669C561.671 149.669 559.284 149.081 557.284 147.905C555.297 146.717 553.768 145.071 552.697 142.965C551.639 140.86 551.11 138.437 551.11 135.697C551.11 132.921 551.645 130.486 552.715 128.393C553.797 126.288 555.332 124.647 557.32 123.471C559.307 122.283 561.671 121.689 564.412 121.689C566.776 121.689 568.846 122.118 570.622 122.977C572.398 123.835 573.803 125.041 574.838 126.593C575.873 128.146 576.444 129.969 576.549 132.063H569.457C569.257 130.71 568.728 129.622 567.869 128.799C567.023 127.964 565.911 127.546 564.535 127.546C563.371 127.546 562.353 127.864 561.483 128.499C560.624 129.122 559.954 130.034 559.472 131.233C558.99 132.433 558.749 133.886 558.749 135.591C558.749 137.32 558.984 138.79 559.454 140.001C559.936 141.213 560.613 142.136 561.483 142.771C562.353 143.406 563.371 143.724 564.535 143.724C565.394 143.724 566.164 143.547 566.846 143.195C567.54 142.842 568.111 142.33 568.558 141.66C569.016 140.978 569.316 140.16 569.457 139.208H576.549C576.432 141.278 575.867 143.101 574.856 144.677C573.856 146.241 572.474 147.464 570.71 148.346C568.946 149.228 566.858 149.669 564.447 149.669ZM588.171 141.342L588.189 132.327H589.283L597.962 122.042H606.589L594.928 135.661H593.146L588.171 141.342ZM581.361 149.14V113.009H588.877V149.14H581.361ZM598.298 149.14L590.323 137.337L595.334 132.027L607.101 149.14H598.298ZM621.51 149.669C618.723 149.669 616.323 149.105 614.312 147.976C612.313 146.835 610.772 145.223 609.69 143.142C608.608 141.048 608.067 138.572 608.067 135.714C608.067 132.927 608.608 130.481 609.69 128.375C610.772 126.27 612.295 124.629 614.259 123.453C616.235 122.277 618.552 121.689 621.21 121.689C622.998 121.689 624.662 121.977 626.203 122.553C627.755 123.118 629.108 123.971 630.261 125.112C631.425 126.252 632.331 127.687 632.977 129.416C633.624 131.133 633.948 133.145 633.948 135.45V137.514H611.066V132.856H626.873C626.873 131.774 626.638 130.816 626.168 129.981C625.697 129.146 625.044 128.493 624.209 128.022C623.386 127.54 622.427 127.299 621.334 127.299C620.193 127.299 619.181 127.564 618.299 128.093C617.429 128.611 616.747 129.31 616.253 130.192C615.759 131.063 615.506 132.033 615.494 133.103V137.532C615.494 138.872 615.741 140.031 616.235 141.007C616.741 141.983 617.452 142.736 618.37 143.265C619.287 143.794 620.375 144.059 621.634 144.059C622.469 144.059 623.233 143.941 623.927 143.706C624.621 143.471 625.215 143.118 625.709 142.648C626.203 142.177 626.579 141.601 626.838 140.919L633.789 141.378C633.436 143.048 632.713 144.506 631.619 145.753C630.537 146.988 629.137 147.952 627.42 148.646C625.715 149.328 623.745 149.669 621.51 149.669ZM638.852 149.14V122.042H646.138V126.77H646.421C646.915 125.088 647.744 123.818 648.908 122.959C650.073 122.089 651.413 121.654 652.931 121.654C653.307 121.654 653.713 121.677 654.148 121.724C654.583 121.771 654.965 121.836 655.295 121.918V128.587C654.942 128.481 654.454 128.387 653.83 128.305C653.207 128.222 652.637 128.181 652.119 128.181C651.013 128.181 650.026 128.422 649.155 128.905C648.297 129.375 647.614 130.034 647.109 130.88C646.615 131.727 646.368 132.704 646.368 133.809V149.14H638.852ZM701.04 113.009V149.14H694.442L678.723 126.399H678.459V149.14H670.82V113.009H677.524L693.119 135.732H693.437V113.009H701.04ZM719.56 149.669C716.773 149.669 714.373 149.105 712.362 147.976C710.363 146.835 708.822 145.223 707.74 143.142C706.658 141.048 706.117 138.572 706.117 135.714C706.117 132.927 706.658 130.481 707.74 128.375C708.822 126.27 710.345 124.629 712.309 123.453C714.285 122.277 716.602 121.689 719.26 121.689C721.048 121.689 722.712 121.977 724.253 122.553C725.805 123.118 727.158 123.971 728.311 125.112C729.475 126.252 730.381 127.687 731.028 129.416C731.674 131.133 731.998 133.145 731.998 135.45V137.514H709.116V132.856H724.923C724.923 131.774 724.688 130.816 724.218 129.981C723.747 129.146 723.094 128.493 722.259 128.022C721.436 127.54 720.478 127.299 719.384 127.299C718.243 127.299 717.231 127.564 716.349 128.093C715.479 128.611 714.797 129.31 714.303 130.192C713.809 131.063 713.556 132.033 713.544 133.103V137.532C713.544 138.872 713.791 140.031 714.285 141.007C714.791 141.983 715.503 142.736 716.42 143.265C717.337 143.794 718.425 144.059 719.684 144.059C720.519 144.059 721.283 143.941 721.977 143.706C722.671 143.471 723.265 143.118 723.759 142.648C724.253 142.177 724.629 141.601 724.888 140.919L731.839 141.378C731.486 143.048 730.763 144.506 729.669 145.753C728.587 146.988 727.187 147.952 725.47 148.646C723.765 149.328 721.795 149.669 719.56 149.669ZM742.054 149.14L734.679 122.042H742.283L746.482 140.248H746.729L751.104 122.042H758.567L763.013 140.143H763.242L767.37 122.042H774.956L767.599 149.14H759.643L754.985 132.098H754.65L749.993 149.14H742.054ZM801.512 129.769L794.632 130.192C794.514 129.604 794.261 129.075 793.873 128.605C793.485 128.122 792.973 127.74 792.338 127.458C791.715 127.164 790.968 127.017 790.097 127.017C788.933 127.017 787.951 127.264 787.151 127.758C786.352 128.24 785.952 128.887 785.952 129.698C785.952 130.345 786.21 130.892 786.728 131.339C787.245 131.786 788.133 132.145 789.392 132.415L794.296 133.403C796.931 133.944 798.895 134.815 800.189 136.014C801.482 137.214 802.129 138.79 802.129 140.742C802.129 142.518 801.606 144.077 800.559 145.418C799.524 146.758 798.101 147.805 796.29 148.558C794.49 149.299 792.414 149.669 790.062 149.669C786.475 149.669 783.617 148.922 781.488 147.429C779.371 145.923 778.13 143.877 777.766 141.289L785.158 140.901C785.381 141.995 785.922 142.83 786.781 143.406C787.639 143.971 788.739 144.253 790.08 144.253C791.397 144.253 792.456 144 793.255 143.495C794.067 142.977 794.479 142.313 794.49 141.501C794.479 140.819 794.19 140.26 793.626 139.825C793.061 139.378 792.191 139.037 791.015 138.802L786.322 137.867C783.676 137.337 781.706 136.42 780.412 135.115C779.13 133.809 778.489 132.145 778.489 130.122C778.489 128.381 778.959 126.882 779.9 125.623C780.853 124.365 782.188 123.394 783.905 122.712C785.634 122.03 787.657 121.689 789.974 121.689C793.397 121.689 796.09 122.412 798.054 123.859C800.03 125.306 801.183 127.276 801.512 129.769Z" fill="#111827"/>
</svg>
